<?xml version="1.0" encoding="utf-8"?>
<!-- Generator: Adobe Illustrator 23.0.0, SVG Export Plug-In . SVG Version: 6.00 Build 0)  -->
<svg version="1.1" id="Layer_1" xmlns="http://www.w3.org/2000/svg" xmlns:xlink="http://www.w3.org/1999/xlink" x="0px" y="0px"
	 viewBox="0 0 2417.8 653" style="enable-background:new 0 0 2417.8 653;" xml:space="preserve">
<style type="text/css">
	.st0{fill:#FFFFFF;}
	.st1{fill:#E8E8E8;}
</style>
<g>
	<g>
		<path class="st0" d="M304,602.4c-159.9,0-290.1-130.1-290.1-290.1c0-159.9,130.1-290,290.1-290c159.9,0,290,130.1,290,290
			C594,472.3,463.9,602.4,304,602.4z M304,38.1c-151.2,0-274.2,123-274.2,274.2s123,274.2,274.2,274.2
			c151.2,0,274.2-123,274.2-274.2S455.2,38.1,304,38.1z"/>
	</g>
	<g>
		<polygon class="st1" points="309.3,302.3 243.5,189 122.3,435.6 243.5,435.6 		"/>
		<polygon class="st0" points="243.5,189 364.5,189 485.7,435.6 364.5,435.6 		"/>
	</g>
	<g>
		<path class="st0" d="M785.9,325.9v100.6c0,3.8-2.6,6.8-6.3,6.8c-3.7,0-6.6-3-6.6-6.8V407c-12.5,14.6-30.9,28.5-55.2,28.5
			c-28.7,0-51.2-15.8-51.2-49.6c0-39.8,34.6-49.6,85.8-49.6H773v-10.5c0-28.2-13.6-58.9-48.6-58.9c-22.8,0-33.9,10.1-38.3,10.1
			c-4.1,0-6.6-4.9-6.6-7.5c0-7.1,23.2-15.8,45.7-15.8C770.4,253.8,785.9,288.8,785.9,325.9z M773,349.6h-20.3
			c-37.9,0-73.3,3.8-73.3,36.4c0,25.2,16.6,36.4,37.9,36.4c27.6,0,55.6-25.2,55.6-41.3V349.6z"/>
		<path class="st0" d="M889.4,267c-25.8,0-51.2,20.3-51.2,54.4v105.1c0,3.4-2.9,6.8-6.6,6.8c-3.7,0-6.3-3.4-6.3-6.8V262.5
			c0-3.8,2.6-6.4,6.3-6.4c3.7,0,6.6,2.6,6.6,6.4v19.9c8.5-14.6,25.4-28.5,51.2-28.5H903c3.3,0,6.3,3,6.3,6.8c0,3.4-2.9,6.4-6.3,6.4
			L889.4,267L889.4,267z"/>
		<path class="st0" d="M922.1,367.2v-45.1c0-38.3,21.4-68.3,67.4-68.3c29.5,0,48.2,14.3,48.2,22.2c0,3.4-3.3,6.4-6.6,6.4
			c-6.3,0-12.5-15.4-41.6-15.4c-35.4,0-54.5,21-54.5,55.2v45.1c0,34.2,18.8,55.2,54.9,55.2c30.9,0,37.2-15.4,43.8-15.4
			c3.3,0,6.3,3,6.3,6.4c0,7.9-19.2,22.2-50.5,22.2C943.8,435.6,922.1,406.3,922.1,367.2z"/>
		<path class="st0" d="M1162.9,262.5v19.9c8.1-14.6,24.7-28.5,49.4-28.5c36.1,0,66.3,30.4,66.3,67.6v45.8
			c0,35.7-30.6,68.3-65.6,68.3c-22.5,0-42-13.1-50.1-28.5v108.5c0,3.4-2.9,6.8-6.6,6.8s-6.3-3.4-6.3-6.8v-253c0-3.8,2.6-6.4,6.3-6.4
			S1162.9,258.7,1162.9,262.5z M1265.7,321.4c0-27.4-23.6-54.4-52.3-54.4c-25,0-50.5,20.3-50.5,54.4v59.7
			c0,12.8,21.7,41.3,50.8,41.3c28,0,51.9-27,51.9-55.2L1265.7,321.4L1265.7,321.4z"/>
		<path class="st0" d="M1312.1,368V262.8c0-3.4,2.9-6.8,6.6-6.8c3.3,0,6.3,3.4,6.3,6.8V368c0,27.8,23.2,54.4,52.7,54.4
			c29.1,0,52.3-26.3,52.3-54.4V262.5c0-3.4,2.9-6.4,6.6-6.4c3.7,0,6.3,3,6.3,6.4V368c0,36-29.8,67.6-65.2,67.6
			C1341.6,435.6,1312.1,403.6,1312.1,368z"/>
		<path class="st0" d="M1495.4,151.3v131c8.1-14.6,24.7-28.5,49.4-28.5c36.1,0,66.3,30.4,66.3,67.6v45.8c0,35.7-30.6,68.3-65.6,68.3
			c-22.5,0-42-13.1-50.1-28.5v19.5c0,3.4-2.9,6.8-6.6,6.8c-3.7,0-6.3-3.4-6.3-6.8V151.3c0-3.8,2.6-6.4,6.3-6.4
			C1492.5,145,1495.4,147.6,1495.4,151.3z M1598.2,321.4c0-27.4-23.6-54.4-52.3-54.4c-25,0-50.5,20.3-50.5,54.4v59.7
			c0,12.8,21.7,41.3,50.8,41.3c28,0,51.9-27,51.9-55.2V321.4z"/>
		<path class="st0" d="M1660.6,151.3v275.2c0,3.4-2.9,6.8-6.6,6.8c-3.7,0-6.3-3.4-6.3-6.8V151.3c0-3.8,2.6-6.4,6.3-6.4
			C1657.7,145,1660.6,147.6,1660.6,151.3z"/>
		<path class="st0" d="M1720.1,185.5c0,6.4-5.2,12-11.4,12c-6.6,0-11.8-5.6-11.8-12c0-6.4,5.2-11.6,11.8-11.6
			C1715,173.9,1720.1,179.1,1720.1,185.5z M1715.3,262.5v164.1c0,3.4-2.9,6.8-6.6,6.8c-3.3,0-6.3-3.4-6.3-6.8V262.5
			c0-3.8,2.9-6.4,6.3-6.4C1712.4,256.1,1715.3,258.7,1715.3,262.5z"/>
		<path class="st0" d="M1841.9,391.2c0-58.2-92.8-26.7-92.8-88.6c0-22.5,16.2-48.8,54.5-48.8c21.7,0,44.9,8.6,44.9,15.8
			c0,2.6-2.9,7.5-6.3,7.5c-4.8,0-16.2-10.1-38.3-10.1c-31.3,0-42,20.6-42,35.3c0,49.9,92.8,18.8,92.8,88.2
			c0,27.8-20.6,45.1-55.6,45.1c-33.1,0-53.8-15.4-53.8-24.4c0-3.4,2.6-6.4,5.2-6.4c6.6,0,13.6,17.6,48.3,17.6
			C1829.8,422.4,1841.9,408.1,1841.9,391.2z"/>
		<path class="st0" d="M1898.3,426.5c0,3.4-2.9,6.8-6.6,6.8c-3.7,0-6.3-3.4-6.3-6.8V151.3c0-3.8,2.6-6.4,6.3-6.4
			c3.7,0,6.6,2.6,6.6,6.4v131c8.1-14.6,24.7-28.5,49.4-28.5c36.1,0,66.3,30.4,66.3,67.6v105.1c0,4.5-3.3,6.8-6.6,6.8
			c-2.9,0-6.3-2.3-6.3-6.8V321.4c0-27.4-23.6-54.4-52.3-54.4c-25,0-50.5,20.3-50.5,54.4V426.5z"/>
		<path class="st0" d="M2070.1,185.5c0,6.4-5.2,12-11.4,12c-6.6,0-11.8-5.6-11.8-12c0-6.4,5.2-11.6,11.8-11.6
			C2065,173.9,2070.1,179.1,2070.1,185.5z M2065.3,262.5v164.1c0,3.4-2.9,6.8-6.6,6.8c-3.3,0-6.3-3.4-6.3-6.8V262.5
			c0-3.8,2.9-6.4,6.3-6.4C2062.4,256.1,2065.3,258.7,2065.3,262.5z"/>
		<path class="st0" d="M2118.6,426.5c0,3.4-2.9,6.8-6.6,6.8c-3.7,0-6.3-3.4-6.3-6.8V262.5c0-3.8,2.6-6.4,6.3-6.4
			c3.7,0,6.6,2.6,6.6,6.4v19.9c8.1-14.6,24.7-28.5,49.4-28.5c36.1,0,66.3,30.4,66.3,67.6v105.1c0,4.5-3.3,6.8-6.6,6.8
			c-2.9,0-6.3-2.3-6.3-6.8V321.4c0-27.4-23.6-54.4-52.3-54.4c-25,0-50.5,20.3-50.5,54.4L2118.6,426.5L2118.6,426.5z"/>
		<path class="st0" d="M2378.1,280.9c6.3,9,9.2,21.8,9.2,34.5v16.9c0,35.7-24.7,62.3-60,62.3c-11,0-21.4-2.6-30.2-7.9
			c-7.4,3.4-14.7,8.3-14.7,18c0,37.9,116.4-0.8,116.4,66.8c0,32.3-26.5,50.7-68.9,50.7c-42.7,0-71.4-18.8-71.4-48.4
			c0-22.9,16.9-35.7,33.5-41.7c-13.3-3.8-22.5-10.5-22.5-26.7c0-13.9,7-20.7,18-25.9c-12.2-10.9-19.2-27.8-19.2-47.3v-16.9
			c0-36,23.6-61.6,59.3-61.6c18,0,33.2,6.8,43.8,18c6.6-12.8,18.4-22.9,27.6-22.9c5.5,0,7.7,3.8,7.7,7.5c0,4.5-3.3,7.1-6.6,7.1
			C2394,263.6,2385.1,267,2378.1,280.9z M2310,435.9c-19.5,5.6-38.7,15.8-38.7,36.8c0,22.2,21.4,37.5,58.6,37.5
			c36.5,0,56-15,56-38.3C2385.9,436.3,2333.6,439.3,2310,435.9z M2374.4,315.4c0-27.4-17.3-48.4-46.8-48.4s-46.4,21-46.4,48.4v16.5
			c0,28.2,17.3,49.6,46.8,49.6c28.7,0,46.4-21,46.4-49.2L2374.4,315.4L2374.4,315.4z"/>
	</g>
</g>
<g>
	<path class="st0" d="M727.1,107.7c-1.9,5.7-4.4,10-9.6,13.1V81.2c9-2.3,11.1-9.1,11.2-16.1h-1.3c-1.9,4-4.5,5.7-9.3,5.7
		c-9.4,0-15.6-7.2-23.6-7.2c-12.6,0-18.7,11.2-18.7,21.3c0,0.8,0,1.5,0.1,2.3h1.5c0-5.4,4.6-10.7,12.6-10.7c1.8,0,3.2,0.2,4.9,0.6
		c-12.2,7.5-20.7,16-20.7,29.8c0,18.1,11.8,29.5,27.4,29.5c15.5,0,25.6-13.8,26.9-28.1L727.1,107.7z M685.3,101.7
		c0-12.2,5.5-18.3,11.2-24c3.9,1.1,7.3,2.7,11.5,3.6l-16.6,9.1l1.1,1.7l3.5-1.8v27.3l-3.4,1.8C687.4,115.1,685.3,108.4,685.3,101.7z
		 M715.4,121.9c-3,1.3-6.4,2.2-10.2,2.2c-4.6,0-8-1.1-10.9-3.2l14.1-7.6V81.4c1.4,0.3,2.9,0.4,4.4,0.4c0.9,0,1.8,0,2.5-0.1
		L715.4,121.9L715.4,121.9z"/>
	<path class="st0" d="M803.1,98.9l-11.6-17.6l-20.9,14.9v27.1l-3.4,3.5l1.3,1.4l3.1-3l14.1,11l15.7-16.4l-1.4-1.4l-7.7,7.9l-10-7.7
		v-4.9L803.1,98.9z M782.3,89.3l0.2-0.1l9.4,14.9l-9.6,6.9L782.3,89.3L782.3,89.3z"/>
	<path class="st0" d="M765.9,87l-3,2.8l-9.6-8.5l-9.6,9.9V62.4l-0.2-0.1l-11.7,12.2v47.8l-4,4.1v0.4l10.3,9.2l9-9.3v-0.4l-3.3-3V94
		l2.9-2.8L752,96v38.7c0,5.4-3.4,9.8-8.6,12.3l0.7,1.1c10.5-2.1,19.9-9.1,19.9-19.4V91.6l3.4-3.2L765.9,87z"/>
	<path class="st0" d="M870.6,76.7L857,63.6l-12.9,13.3v-4.3c0-11.2-7.1-9.4-7.1-16.5c0-4.6,3-6.8,6.6-8.5l-1-0.9
		c-10.9,3.8-16.9,9.5-16.9,15.7c0,5.5,4.3,5.8,4.3,12.2V91c-8.1,0-9.3,7.3-9.3,10.2c0,1.7,0.3,3.2,0.6,4.1h1.1
		c0.4-2.2,1.8-3.8,4.5-3.8h3.1v21.2l15.9,13.4l11.7-13l15.4,13l22.8-20.5v-40l-12.4-11.9L870.6,76.7z M856.9,120.9l-3.4,3.8
		l-9.4-7.9V79.7l5.1-5.1l7.7,7.5L856.9,120.9L856.9,120.9z M881.8,125.9l-0.1,0.1l-10.8-9.3V79.3l4.8-4.6l6.2,6L881.8,125.9
		L881.8,125.9z"/>
	<polygon class="st0" points="1043.7,126 1039,121.8 1039,90.9 1042.8,87.2 1041.2,85.7 1038.3,88.7 1029.9,81.2 1018.7,92.8 
		1020.2,94.2 1023.1,91.4 1027.1,95 1027.1,125.8 1023.5,129.4 1024.9,130.8 1028,127.8 1037.2,136 1048.4,124.1 1047,122.6 	"/>
	<path class="st0" d="M977.6,81.7c-2.4,1.9-5.6,2.4-7.8,2.4c-2.9,0-4.6-1.1-6.9-2.8l-18.3,12.6V114h9.4l-15.2,21.4l1.6,0.5
		c2.7-2.8,5.3-4.3,8.6-4.3c4.1,0,7.4,1.8,9.7,4.4l17.6-12.1v-23.1h-10.4l12.9-18.4L977.6,81.7z M964.3,129l-0.1,0.1
		c-2.1-2.6-5.5-4.1-8.8-4.1c-3.8,0-5.9,1.1-8.4,2.7l-0.1-0.2l12.3-17.2h5.2V129z M960.7,104.4h-4.2V88.6l0.2-0.1
		c2.1,2.2,4.8,3.1,7,3.1c3.9,0,5.3-0.9,7.6-2.5l0.1,0.1L960.7,104.4z"/>
	<polygon class="st0" points="1042.2,71.6 1033.2,63.5 1024.9,72.2 1034,80.3 	"/>
	<path class="st0" d="M1017.5,87l-3,2.8l-9.6-8.5l-9.6,9.9V62.4l-0.2-0.1l-11.7,12.2v47.8l-4,4.1v0.4l10.3,9.2l9-9.3v-0.4l-3.3-3V94
		l2.9-2.8l5.4,4.9v38.7c0,5.4-3.4,9.8-8.6,12.3l0.7,1.1c10.5-2.1,19.9-9.1,19.9-19.4V91.6l3.4-3.2L1017.5,87z"/>
	<path class="st0" d="M941.2,122.6l-3.2,3.2l-5.1-4.5V92l4-3.7l-1.7-1.4l-3.1,3l-11.5-8.9l-21,14.7v28.4l-3.2,3.2l1.4,1.4l2.5-2.5
		l11.2,9.6l9.2-9.3h0.2l10.4,9.3l11.5-11.9L941.2,122.6z M920.9,123.7l-2.7,2.5l-6.7-5.8V88.8l0.2-0.2l9.2,7L920.9,123.7
		L920.9,123.7z"/>
	<polygon class="st0" points="1253.9,126 1249.6,122 1249.6,91.7 1253.5,87.9 1252,86.4 1248.8,89.6 1239.2,81.1 1228.7,92 
		1228.7,89.9 1218.7,81.1 1207.4,92.9 1209,94.3 1212.3,91.1 1216.8,95.1 1216.8,122.3 1212.8,126.4 1212.8,126.7 1223.1,135.9 
		1232.2,126.6 1232.2,126.2 1228.7,123.1 1228.7,94.9 1232.5,91.1 1237.7,95.8 1237.7,127.4 1247.3,135.9 1258.9,123.7 
		1257.6,122.3 	"/>
	<path class="st0" d="M1136.1,88.1l-1.4-1.4l-3.3,3.1l-11.3-8.6l-21,14.7v30l-3.8,3.8l1.4,1.4l3.2-3.1l9.9,7.7l-15.1,17.4l1.1,0.9
		c3.6-2.5,8.2-3.9,11.8-3.9c3.4,0,6,1.6,9.6,5.5c11-8.1,18.2-12.6,18.2-17.5c0-4.2-3.2-4-3.2-9.6V91.7L1136.1,88.1z M1111.1,88.8
		l0.2-0.2l9.2,7v28.1l-2.9,3.2l-6.5-5L1111.1,88.8L1111.1,88.8z M1124.7,148.2c-2.9-2.5-6.1-4.3-10.5-4.3c-5.2,0-7.8,1.3-11.4,3.4
		l-0.1-0.1l17.8-20.2v1.6c0,4.6,0.7,6.5,3.4,8.2c2.8,1.7,4.4,3.1,4.4,5.3C1128.3,144.8,1126.8,146.5,1124.7,148.2z"/>
	<path class="st0" d="M1202.4,90.9l-12.6-9.6L1170.3,95v29.2l-3.5,3.6l1.4,1.4l3.1-3l13.6,10.1l18.7-13.5V92.7l3.5-3.5l-1.4-1.5
		L1202.4,90.9z M1191.6,128l-9.4-6.9V88.9l0.1-0.1l9.3,7.1V128z"/>
	<polygon class="st0" points="1165.4,122.3 1161.8,126 1156.5,122 1156.5,89.2 1161.7,89.2 1165.5,83.6 1165.3,83.4 1156.5,83.4 
		1156.5,64.2 1156.3,64 1144.5,76.2 1144.5,83.4 1141.8,83.4 1137.9,89 1138.1,89.2 1144.5,89.2 1144.5,126.6 1141.1,130.1 
		1142.6,131.5 1145.5,128.6 1155.3,136 1166.9,123.8 	"/>
	<polygon class="st0" points="1095.2,122.4 1091.5,126.1 1087.2,122.1 1087.2,91.8 1091.1,88.1 1089.6,86.5 1086.4,89.7 
		1076.8,81.2 1066.3,92.2 1066.3,90 1056.3,81.2 1045,93 1046.6,94.4 1049.9,91.2 1054.4,95.2 1054.4,122.4 1050.4,126.5 
		1050.4,126.8 1060.7,136 1069.8,126.7 1069.8,126.3 1066.3,123.2 1066.3,95 1070.1,91.2 1075.3,95.9 1075.3,127.5 1084.9,136 
		1096.5,123.8 	"/>
	<polygon class="st0" points="1442.7,122.3 1439.1,126 1433.8,122 1433.8,89.2 1439,89.2 1442.8,83.6 1442.6,83.4 1433.8,83.4 
		1433.8,64.2 1433.6,64 1421.8,76.2 1421.8,83.4 1419.1,83.4 1415.2,89 1415.4,89.2 1421.8,89.2 1421.8,126.6 1418.4,130.1 
		1419.9,131.5 1422.8,128.6 1432.6,136 1444.2,123.8 	"/>
	<path class="st0" d="M1308.2,78V67.7h-2.1v12.4l-3.2,3.4V72.9l-10.4-9.3l-12.3,12.3l1.6,1.4l3.1-3l4,3.5v11.7h-0.7
		c-6,0-9.6,4-9.6,9.3c0,2.7,0.4,4.1,0.8,5h1.3c0.4-2.4,2.7-4.5,5.9-4.5h2.3v21.1c-7.2,2.4-11.4,8.5-12.2,16.9l0.9,0.5
		c3.2-3.9,7.4-6.3,11.3-7.1v29.1l0.2,0.1l12.8-11.6l6.1,5.5l0.2-0.1V131c2.8,0.8,5.1,2.7,7,5l19.3-14.3v-47L1322,63.6L1308.2,78z
		 M1306.1,149.2l-3.2-2.9V85.5l3.2-3.2V149.2z M1320.5,124.8l-0.1,0.1c-3.2-3.4-7.1-5.1-12.3-5.7V79.9l5.8-6.1l6.5,5.8L1320.5,124.8
		L1320.5,124.8z"/>
	<path class="st0" d="M1376.4,87.7l-3.2,3.1l-12.6-9.6L1341.1,95v29.2l-3.5,3.6l1.4,1.4l3.1-3l13.6,10.1l18.7-13.5V92.7l3.5-3.5
		L1376.4,87.7z M1362.4,128l-9.4-6.9V88.9l0.1-0.1l9.3,7.1V128z"/>
	<path class="st0" d="M1413.6,81.7c-2.4,1.9-5.6,2.4-7.8,2.4c-2.9,0-4.6-1.1-6.8-2.8l-18.3,12.6V114h9.4l-15.2,21.4l1.5,0.5
		c2.7-2.8,5.3-4.3,8.6-4.3c4.1,0,7.4,1.8,9.7,4.4l17.6-12.1v-23.1h-10.4l12.9-18.4L1413.6,81.7z M1400.2,129l-0.1,0.1
		c-2.1-2.6-5.5-4.1-8.8-4.1c-3.7,0-5.9,1.1-8.4,2.7l-0.1-0.2l12.3-17.2h5.2V129z M1396.7,104.4h-4.2V88.6l0.2-0.1
		c2.1,2.2,4.8,3.1,7,3.1c3.9,0,5.3-0.9,7.6-2.5l0.1,0.1L1396.7,104.4z"/>
</g>
</svg>
